# xmcd CD database file
#
# Track frame offsets:
#	225
#	22982
#	39222
#	61667
#	75770
#	94064
#	118601
#	135554
#	159806
#	172212
#	186194
#	206724
#	222860
#	249915
#	270207
#
# Disc length: 3906 seconds
#
# Revision: 0
# Processed by: cddbd v1.5.2PL0 Copyright (c) Steve Scherf et al.
# Submitted via: CDex 1.50
#
DISCID=b40f3f0f
DTITLE=The John Wilson Orchestra - Orchestral Jazz
DYEAR=2000
DGENRE=Jazz
TTITLE0=Watch What Happens
TTITLE1=I'm In The Mood For Love
TTITLE2=My Melancholy Baby
TTITLE3=All Alone
TTITLE4=I Should Care
TTITLE5=But Not For Me
TTITLE6=Whistling In The Dark
TTITLE7=Lush Life
TTITLE8=Go Fly A Kite
TTITLE9=Then I'll Be Tired Of You
TTITLE10=Miss Otis Regrets
TTITLE11=Love
TTITLE12=You Made Me Love You
TTITLE13=You Must Believe In Spring
TTITLE14=On The Sunny Side Of The Street
EXTD=YEAR: 2000
EXTT0=
EXTT1=
EXTT2=
EXTT3=
EXTT4=
EXTT5=
EXTT6=
EXTT7=
EXTT8=
EXTT9=
EXTT10=
EXTT11=
EXTT12=
EXTT13=
EXTT14=
PLAYORDER=
